<svg xmlns="http://www.w3.org/2000/svg" xmlns:xlink="http://www.w3.org/1999/xlink" xmlns:inkscape="http://www.inkscape.org/namespaces/inkscape" version="1.1" width="365" height="206" viewBox="0 0 365 206">
<defs>
<path id="font_1_5" d="M.2869873 .68333438C.2869873 .6843262 .2869873 .69433596 .27398683 .69433596 .25099183 .69433596 .17799378 .6863251 .1519928 .6843262 .14399719 .68333438 .1329956 .6823273 .1329956 .6643219 .1329956 .6523285 .14199829 .6523285 .15699768 .6523285 .20498657 .6523285 .20698548 .6453247 .20698548 .6353302L.20399475 .6153412 .05899048 .039260866C.054992677 .025253296 .054992677 .023254395 .054992677 .01725769 .054992677-.0057525637 .07499695-.0107421879 .083999637-.0107421879 .09700012-.0107421879 .11199951-.0017547608 .117996219 .010253906 .12298584 .019256592 .16799927 .20431519 .17399597 .22932434 .20799256 .22631836 .2899933 .21031189 .2899933 .14428711 .2899933 .13729859 .2899933 .13328552 .2869873 .123291019 .2849884 .11128235 .2829895 .09927368 .2829895 .088272098 .2829895 .029251099 .32299806-.0107421879 .375-.0107421879 .40499879-.0107421879 .43199159 .0052490236 .45399476 .042266847 .47898866 .08627319 .48999024 .14129639 .48999024 .14329529 .48999024 .1532898 .48098756 .1532898 .47799684 .1532898 .46798707 .1532898 .46699525 .14929199 .46398927 .13528443 .44400025 .06227112 .42099 .011245728 .3769989 .011245728 .35798646 .011245728 .34498597 .022247315 .34498597 .058273317 .34498597 .07527161 .34899903 .09828186 .35299684 .11428833 .35699464 .13128662 .35699464 .13528443 .35699464 .14529419 .35699464 .21031189 .2939911 .23931885 .20899964 .2503357 .23999024 .26834107 .27198792 .30033876 .29499818 .32435609 .34298707 .37734986 .3889923 .42037965 .43798829 .42037965 .44400025 .42037965 .44499208 .42037965 .44699098 .41937257 .45899964 .41737367 .45999146 .41737367 .46798707 .4113617 .46998597 .4103546 .46998597 .40934754 .47200013 .40734864 .42399598 .4043579 .4149933 .36535646 .4149933 .35334779 .4149933 .33735658 .42599488 .31835938 .45298768 .31835938 .47898866 .31835938 .5079956 .3403473 .5079956 .37934876 .5079956 .40934754 .4850006 .4423828 .43998719 .4423828 .4119873 .4423828 .3659973 .43437196 .2939911 .35435487 .2599945 .3163452 .22099304 .27633668 .18299866 .26133729L.2869873 .68333438Z"/>
<path id="font_1_2" d="M.644989 .69506838C.644989 .69807437 .6429901 .7050781 .6339874 .7050781 .6289978 .7050781 .6279907 .70407107 .6159973 .6900635L.56799319 .6330414C.5419922 .68006899 .48999024 .7050781 .4249878 .7050781 .2979889 .7050781 .17799378 .58999636 .17799378 .4689026 .17799378 .38783265 .23098755 .34179688 .28199769 .32678224L.3889923 .2987671C.42599488 .2897644 .48098756 .27474977 .48098756 .19267273 .48098756 .1026001 .39898683 .008529663 .30099488 .008529663 .23699951 .008529663 .12599182 .030548096 .12599182 .15464783 .12599182 .17866516 .1309967 .2026825 .13198853 .20869446 .1329956 .21269226 .13398743 .21369934 .13398743 .21569824 .13398743 .22570801 .1269989 .22669983 .12199402 .22669983 .116989139 .22669983 .114990238 .22570801 .11199951 .22270203 .10798645 .21870423 .051986696-.009475708 .051986696-.012466431 .051986696-.018463135 .056991579-.022460938 .06298828-.022460938 .067993167-.022460938 .068984989-.021469117 .08099365-.007461548L.12998963 .049560548C.17298889-.008468628 .24099732-.022460938 .29899598-.022460938 .43499757-.022460938 .5529938 .11061096 .5529938 .2347107 .5529938 .30377198 .5189972 .33779908 .5039978 .35180665 .48098756 .37483216 .46598817 .37882997 .3769989 .40185548 .35499574 .40785218 .31900025 .41786195 .30999757 .41986085 .2829895 .42886354 .24899292 .457901 .24899292 .51094058 .24899292 .59199526 .32899476 .677063 .42399598 .677063 .5069885 .677063 .56799319 .6340332 .56799319 .52194216 .56799319 .48991395 .56399539 .47190858 .56399539 .4658966 .56399539 .4649048 .56399539 .45588685 .57598879 .45588685 .58599856 .45588685 .58699038 .45889283 .59098818 .47590638L.644989 .69506838Z"/>
<path id="font_2_1" d="M.2919922 .66430667C.29299928 .66630557 .29599 .67930606 .29599 .68029788 .29599 .68530276 .2919922 .6943054 .27999879 .6943054 .27598573 .6943054 .24499512 .69129946 .22200012 .68930056L.1659851 .68530276C.14399719 .68330386 .13398743 .682312 .13398743 .66430667 .13398743 .6502991 .147995 .6502991 .1599884 .6502991 .20799256 .6502991 .20799256 .64430239 .20799256 .63531497 .20799256 .63230898 .20799256 .63031008 .20298767 .61231997L.06098938 .04324341C.056991579 .02822876 .056991579 .022232056 .056991579 .021224976 .056991579 .0042266848 .070999149-.009765625 .08999634-.009765625 .12399292-.009765625 .13198853 .022232056 .13598633 .036239625 .1459961 .07826233 .17199707 .18434143 .18299866 .2263794 .23799134 .22036743 .30499269 .20135498 .30499269 .14431763 .30499269 .13931275 .30499269 .13430786 .30299378 .124298099 .2999878 .11129761 .2979889 .09727478 .2979889 .092285159 .2979889 .033233644 .34199525-.009765625 .3999939-.009765625 .44198609-.009765625 .46798707 .021224976 .48098756 .040237428 .5049896 .07727051 .5209961 .13731385 .5209961 .14331055 .5209961 .15332031 .5130005 .1563263 .5059967 .1563263 .49398805 .1563263 .49198915 .15031433 .48799134 .13230896 .47499085 .08528137 .44898988 .018234253 .4019928 .018234253 .37599183 .018234253 .36999513 .040237428 .36999513 .06726074 .36999513 .08027649 .37098695 .092285159 .37599183 .11529541 .3769989 .11929321 .3809967 .13531494 .3809967 .14631653 .3809967 .2283783 .27799989 .24638367 .22698975 .25338746 .2639923 .27540589 .2979889 .30943299 .30999757 .32243348 .36499024 .37643434 .4099884 .4133911 .45799256 .4133911 .47099305 .4133911 .48298646 .4104004 .4909973 .40042115 .43699647 .39343263 .43699647 .34643556 .43699647 .34542848 .43699647 .3234253 .45399476 .3084259 .47599793 .3084259 .5029907 .3084259 .5329895 .33042909 .5329895 .37142945 .5329895 .40541078 .5089874 .44140626 .45899964 .44140626 .40098573 .44140626 .34899903 .39743043 .2919922 .34042359 .23399353 .28341676 .20899964 .2723999 .19299317 .26539613L.2919922 .66430667Z"/>
<path id="font_3_1" d="M.33099366-.2400055C.33099366-.23701477 .33099366-.23500061 .31399537-.21800232 .18899536-.0920105 .15699768 .09700012 .15699768 .25 .15699768 .42399598 .19499207 .59799197 .31799317 .72299197 .33099366 .73498538 .33099366 .7369995 .33099366 .73999026 .33099366 .746994 .32699586 .75 .32099916 .75 .31098939 .75 .22099304 .6819916 .1619873 .5549927 .11099243 .44499208 .09899902 .33399964 .09899902 .25 .09899902 .17199707 .10998535 .050994874 .16499329-.06201172 .22499085-.18501282 .31098939-.25 .32099916-.25 .32699586-.25 .33099366-.24700928 .33099366-.2400055Z"/>
<path id="font_3_3" d="M.45999146 .31976319C.45999146 .39982606 .45498658 .47988893 .41999818 .5539398 .37399293 .65000918 .2919922 .6660156 .25 .6660156 .18998719 .6660156 .116989139 .64001467 .07598877 .54693606 .04399109 .47789 .038986207 .39982606 .038986207 .31976319 .038986207 .24472046 .042999269 .15464783 .083999637 .07859802 .1269989-.0024719239 .19999695-.022460938 .24899292-.022460938 .30299378-.022460938 .3789978-.0014648438 .4229889 .09359741 .45498658 .16265869 .45999146 .2407074 .45999146 .31976319M.24899292-.00047302247C.20999146-.00047302247 .15098572 .024551392 .1329956 .12062073 .12199402 .18066406 .12199402 .2727356 .12199402 .3317871 .12199402 .39582826 .12199402 .46188355 .12998963 .5159149 .14898682 .63500979 .22399903 .64401248 .24899292 .64401248 .28199769 .64401248 .34799195 .6259918 .36698915 .52693179 .3769989 .47088624 .3769989 .39482118 .3769989 .3317871 .3769989 .25672914 .3769989 .18867493 .3659973 .12461853 .35099793 .029556275 .2939911-.00047302247 .24899292-.00047302247Z"/>
<path id="font_1_1" d="M.20298767 .0009918213C.20298767 .066986087 .17799378 .10598755 .13899231 .10598755 .10598755 .10598755 .085998538 .08099365 .085998538 .052993776 .085998538 .025985718 .10598755 0 .13899231 0 .15098572 0 .1639862 .0039978029 .17399597 .0129852299 .1769867 .01499939 .17799378 .015991211 .1789856 .015991211 .17999268 .015991211 .18099976 .01499939 .18099976 .0009918213 .18099976-.07316589 .1459961-.13328552 .11299133-.16635132 .101989749-.17736817 .101989749-.17936707 .101989749-.18237305 .101989749-.18936157 .10699463-.19335938 .11199951-.19335938 .12298584-.19335938 .20298767-.116256717 .20298767 .0009918213Z"/>
<path id="font_1_3" d="M.37298585 .37835694C.35499574 .41537477 .32598878 .4423828 .2809906 .4423828 .1639862 .4423828 .039993287 .29533387 .039993287 .14929199 .039993287 .055267335 .09498596-.0107421879 .17298889-.0107421879 .19299317-.0107421879 .24299622-.0067443849 .30299378 .06427002 .31098939 .022247315 .34599305-.0107421879 .3939972-.0107421879 .42900086-.0107421879 .45199586 .012252808 .46798707 .044265748 .4850006 .08027649 .49798585 .14129639 .49798585 .14329529 .49798585 .1532898 .4889984 .1532898 .48599244 .1532898 .47599793 .1532898 .47499085 .14929199 .47200013 .13528443 .45498658 .07026672 .43699647 .011245728 .3959961 .011245728 .36898805 .011245728 .3659973 .037261964 .3659973 .057266237 .3659973 .07926941 .36799623 .08728027 .3789978 .13128662 .3899994 .17329407 .3919983 .18330384 .40098573 .22131348L.43699647 .36135865C.44400025 .38935853 .44400025 .39135743 .44400025 .39537049 .44400025 .41236878 .43199159 .42237855 .4149933 .42237855 .3909912 .42237855 .37599183 .4003601 .37298585 .37835694M.30799867 .119277957C.30299378 .10127258 .30299378 .09927368 .28799439 .08227539 .24398804 .027252198 .20298767 .011245728 .1749878 .011245728 .125 .011245728 .11099243 .06626892 .11099243 .105285648 .11099243 .1552887 .14299011 .27833558 .1659851 .32434083 .19699097 .38336183 .24198914 .42037965 .28199769 .42037965 .34700013 .42037965 .36099244 .3383484 .36099244 .33235169 .36099244 .32633973 .35899354 .32034303 .35798646 .31533814L.30799867 .119277957Z"/>
<path id="font_3_2" d="M.2889862 .25C.2889862 .32798768 .27799989 .44898988 .22299195 .56199648 .16299439 .68499758 .07699585 .75 .066986087 .75 .06098938 .75 .056991579 .74598696 .056991579 .73999026 .056991579 .7369995 .056991579 .73498538 .07598877 .71699526 .17399597 .6179962 .23098755 .45899964 .23098755 .25 .23098755 .07899475 .19400025-.09700012 .069992069-.2230072 .056991579-.23500061 .056991579-.23701477 .056991579-.2400055 .056991579-.2460022 .06098938-.25 .066986087-.25 .07699585-.25 .16699219-.18200684 .22599793-.055007936 .2769928 .054992677 .2889862 .16600037 .2889862 .25Z"/>
<path id="font_1_6" d="M.08799744 .059265138C.084991458 .044265748 .07899475 .021255494 .07899475 .01625061 .07899475-.0017547608 .09298706-.0107421879 .10798645-.0107421879 .11999512-.0107421879 .13798523-.002746582 .14498902 .01725769 .1459961 .019256592 .1579895 .06626892 .1639862 .091278079L.18598938 .18130493C.19198609 .2033081 .19799805 .22531128 .20298767 .24832154 .20698548 .26531983 .21499634 .29434205 .21598816 .29833985 .23098755 .3293457 .28399659 .42037965 .3789978 .42037965 .42399598 .42037965 .43299867 .38336183 .43299867 .35035707 .43299867 .28833009 .38398744 .16029358 .36799623 .11727905 .35899354 .0942688 .35798646 .08227539 .35798646 .0712738 .35798646 .024261475 .3929901-.0107421879 .43998719-.0107421879 .5339966-.0107421879 .57099917 .13528443 .57099917 .14329529 .57099917 .1532898 .56199648 .1532898 .5589905 .1532898 .548996 .1532898 .548996 .15029907 .5439911 .13528443 .5239868 .06726074 .4909973 .011245728 .44198609 .011245728 .4249878 .011245728 .41799928 .021255494 .41799928 .044265748 .41799928 .0692749 .4269867 .09327698 .43598939 .11528015 .45498658 .16830445 .49699403 .27833558 .49699403 .3353424 .49699403 .40237428 .45399476 .4423828 .38198854 .4423828 .2919922 .4423828 .24299622 .37835694 .22599793 .35534669 .22099304 .41137696 .17999268 .4423828 .13398743 .4423828 .08799744 .4423828 .068984989 .4033661 .05899048 .38536073 .042999269 .35134889 .0289917 .29232789 .0289917 .28833009 .0289917 .27833558 .038986207 .27833558 .040985109 .27833558 .050994874 .27833558 .051986696 .2793274 .057998659 .30133058 .07499695 .37236024 .09498596 .42037965 .1309967 .42037965 .15098572 .42037965 .1619873 .4073639 .1619873 .37435914 .1619873 .35334779 .15899658 .3423462 .1459961 .29032899L.08799744 .059265138Z"/>
<path id="font_1_4" d="M.23899842 .68333438C.23899842 .6843262 .23899842 .69433596 .22599793 .69433596 .20298767 .69433596 .12998963 .6863251 .10398865 .6843262 .09599304 .68333438 .084991458 .6823273 .084991458 .6643219 .084991458 .6523285 .09399414 .6523285 .10899353 .6523285 .15699768 .6523285 .15899658 .6453247 .15899658 .6353302 .15899658 .6283264 .1499939 .5943451 .14498902 .573349L.06298828 .24731446C.050994874 .1973114 .04699707 .18130493 .04699707 .14628601 .04699707 .05126953 .099990848-.0107421879 .17399597-.0107421879 .2919922-.0107421879 .4149933 .1382904 .4149933 .28233338 .4149933 .37335206 .3619995 .4423828 .28199769 .4423828 .23599243 .4423828 .19499207 .41337586 .16499329 .38235475L.23899842 .68333438M.14498902 .30534364C.15098572 .3273468 .15098572 .3293457 .1599884 .3403473 .20899964 .405365 .2539978 .42037965 .27999879 .42037965 .31599427 .42037965 .34298707 .3903656 .34298707 .32633973 .34298707 .26733399 .30999757 .15229798 .2919922 .11428833 .25898744 .04725647 .21299744 .011245728 .17399597 .011245728 .13999939 .011245728 .10699463 .038253786 .10699463 .11227417 .10699463 .13128662 .10699463 .15029907 .12298584 .21331787L.14498902 .30534364Z"/>
<path id="font_4_1" d="M.6589966 .23046875C.6759949 .23046875 .69400027 .23046875 .69400027 .25045777 .69400027 .27046205 .6759949 .27046205 .6589966 .27046205H.117996219C.100997928 .27046205 .08299255 .27046205 .08299255 .25045777 .08299255 .23046875 .100997928 .23046875 .117996219 .23046875H.6589966Z"/>
<path id="font_4_2" d="M.49598695 .15667725C.49598695 .16268921 .4909973 .16368103 .48599244 .16368103 .46899415 .16368103 .44499208 .14866638 .44400025 .14866638 .42399598 .1356659 .41999818 .12866211 .4079895 .11164856 .3769989 .06460571 .33299256 .030578614 .2679901 .030578614 .17799378 .030578614 .09700012 .09562683 .09700012 .2457428 .09700012 .33581544 .1329956 .45491029 .18598938 .5339813 .22999573 .59802249 .28399659 .6500702 .3869934 .6500702 .4249878 .6500702 .44898988 .6360626 .44898988 .59902957 .44898988 .56399539 .4119873 .49295045 .3999939 .4729309 .3939972 .46191407 .3939972 .45991517 .3939972 .45791627 .3939972 .45091249 .39898683 .45091249 .40499879 .45091249 .4249878 .45091249 .46199037 .4729309 .47399903 .48893739 .47599793 .49295045 .5339966 .5910187 .5339966 .6420593 .5339966 .69706729 .4889984 .7050781 .45298768 .7050781 .30799867 .7050781 .18899536 .6100311 .14299011 .5539856 .023986817 .4098816 .011993408 .25476075 .011993408 .20271302 .011993408 .05659485 .085998538-.024414063 .20199585-.024414063 .36299134-.024414063 .49598695 .13165283 .49598695 .15667725Z"/>
<path id="font_5_1" d="M.2649994 .4740448C.269989 .4870453 .27398683 .49404908 .27398683 .5040436 .27398683 .53704836 .24398804 .5590515 .21598816 .5590515 .17599488 .5590515 .16499329 .52404788 .16099549 .51005557L.033996583 .07901001C.02999878 .06700134 .02999878 .06401062 .02999878 .06300354 .02999878 .054000856 .035995485 .052001954 .04598999 .04901123 .06399536 .041015626 .06599426 .041015626 .067993167 .041015626 .070999149 .041015626 .07699585 .041015626 .083999637 .058013917L.2649994 .4740448Z"/>
</defs>
<path transform="matrix(1,0,0,-1.00005,37.378,105.46947)" stroke-width=".3985" stroke-linecap="butt" stroke-dasharray="2.98883,2.98883" stroke-miterlimit="10" stroke-linejoin="miter" fill="none" stroke="#000000" stroke-opacity=".5" d="M0-85.04042H325.9883M0-56.69362H325.9883M0-28.3468H325.9883M0 0H325.9883M0 28.3468H325.9883M0 56.69362H325.9883M0 85.04042H325.9883M0-99.21382V99.21382M28.3468-99.21382V99.21382M56.69362-99.21382V99.21382M85.04042-99.21382V99.21382M113.38724-99.21382V99.21382M141.73404-99.21382V99.21382M170.08086-99.21382V99.21382M198.42766-99.21382V99.21382M226.77448-99.21382V99.21382M255.12128-99.21382V99.21382M283.4681-99.21382V99.21382M311.8149-99.21382V99.21382M325.9883 99.21382"/>
<path transform="matrix(1,0,0,-1.00005,37.378,105.46947)" stroke-width=".3985" stroke-linecap="butt" stroke-miterlimit="10" stroke-linejoin="miter" fill="none" stroke="#000000" d="M0 0H311.35664"/>
<path transform="matrix(1,0,0,-1.00005,348.73463,105.46947)" stroke-width=".31879" stroke-linecap="round" stroke-linejoin="round" fill="none" stroke="#000000" d="M-1.19551 1.59401C-1.09587 .99626 0 .09961 .29886 0 0-.09961-1.09587-.99626-1.19551-1.59401"/>
<use data-text="k" xlink:href="#font_1_5" transform="matrix(10.9091,0,0,-10.909644,346.181,116.88104)"/>
<path transform="matrix(1,0,0,-1.00005,37.378,105.46947)" stroke-width=".3985" stroke-linecap="butt" stroke-miterlimit="10" stroke-linejoin="miter" fill="none" stroke="#000000" d="M0-99.21382V98.75555"/>
<path transform="matrix(0,-1.00005,-1,-0,37.378,6.7089846)" stroke-width=".31879" stroke-linecap="round" stroke-linejoin="round" fill="none" stroke="#000000" d="M-1.19551 1.59401C-1.09587 .99626 0 .09961 .29886 0 0-.09961-1.09587-.99626-1.19551-1.59401"/>
<use data-text="S" xlink:href="#font_1_2" transform="matrix(10.9091,0,0,-10.909644,21.732998,9.089653)"/>
<use data-text="k" xlink:href="#font_2_1" transform="matrix(7.9701,0,0,-7.970498,28.422997,10.866737)"/>
<path transform="matrix(1,0,0,-1.00005,37.378,105.46947)" stroke-width=".99628" stroke-linecap="butt" stroke-miterlimit="10" stroke-linejoin="miter" fill="none" stroke="#000000" d="M0 28.3468 28.3468 56.69362 56.69362 85.04042 85.04042 56.69362 113.38724 28.3468 141.73404 0 170.08086-28.3468 198.42766 0 226.77448 28.3468 255.12128 56.69362 283.4681 28.3468"/>
<use data-text="(" xlink:href="#font_3_1" transform="matrix(10.9091,0,0,-10.909644,8.688999,79.84919)"/>
<use data-text="0" xlink:href="#font_3_3" transform="matrix(10.9091,0,0,-10.909644,12.92173,79.84919)"/>
<use data-text="," xlink:href="#font_1_1" transform="matrix(10.9091,0,0,-10.909644,18.385998,79.84919)"/>
<use data-text="a" xlink:href="#font_1_3" transform="matrix(10.9091,0,0,-10.909644,23.218728,79.84919)"/>
<use data-text=")" xlink:href="#font_3_2" transform="matrix(10.9091,0,0,-10.909644,29.000996,79.84919)"/>
<use data-text="(" xlink:href="#font_3_1" transform="matrix(10.9091,0,0,-10.909644,308.564,89.43767)"/>
<use data-text="n" xlink:href="#font_1_6" transform="matrix(10.9091,0,0,-10.909644,312.807,89.43767)"/>
<use data-text="," xlink:href="#font_1_1" transform="matrix(10.9091,0,0,-10.909644,319.35249,89.43767)"/>
<use data-text="b" xlink:href="#font_1_4" transform="matrix(10.9091,0,0,-10.909644,324.18519,89.43767)"/>
<use data-text=")" xlink:href="#font_3_2" transform="matrix(10.9091,0,0,-10.909644,328.885,89.43767)"/>
<path transform="matrix(1,0,0,-1.00005,37.378,105.46947)" stroke-width=".99628" stroke-linecap="butt" stroke-dasharray="2.98883,2.98883" stroke-miterlimit="10" stroke-linejoin="miter" fill="none" stroke="#000000" d="M0-28.3468 28.3468-56.69362 56.69362-85.04042 85.04042-56.69362 113.38724-28.3468 141.73404 0"/>
<use data-text="(" xlink:href="#font_3_1" transform="matrix(10.9091,0,0,-10.909644,.20399857,136.54502)"/>
<use data-text="0" xlink:href="#font_3_3" transform="matrix(10.9091,0,0,-10.909644,4.4367296,136.54502)"/>
<use data-text="," xlink:href="#font_1_1" transform="matrix(10.9091,0,0,-10.909644,9.900997,136.54502)"/>
<use data-text="&#x2212;" xlink:href="#font_4_1" transform="matrix(10.9091,0,0,-10.909644,14.749996,136.54502)"/>
<use data-text="a" xlink:href="#font_1_3" transform="matrix(10.9091,0,0,-10.909644,23.234997,136.54502)"/>
<use data-text=")" xlink:href="#font_3_2" transform="matrix(10.9091,0,0,-10.909644,29.000996,136.54502)"/>
<path transform="matrix(1,0,0,-1.00005,37.378,105.46947)" d="M1.99255 28.3468C1.99255 29.44728 1.10046 30.33936 0 30.33936-1.10046 30.33936-1.99255 29.44728-1.99255 28.3468-1.99255 27.24634-1.10046 26.35425 0 26.35425 1.10046 26.35425 1.99255 27.24634 1.99255 28.3468ZM143.7266 0C143.7266 1.10046 142.83452 1.99255 141.73404 1.99255 140.63358 1.99255 139.74149 1.10046 139.74149 0 139.74149-1.10046 140.63358-1.99255 141.73404-1.99255 142.83452-1.99255 143.7266-1.10046 143.7266 0ZM285.46067 28.3468C285.46067 29.44728 284.56858 30.33936 283.4681 30.33936 282.3676 30.33936 281.47554 29.44728 281.47554 28.3468 281.47554 27.24634 282.3676 26.35425 283.4681 26.35425 284.56858 26.35425 285.46067 27.24634 285.46067 28.3468ZM283.4681 28.3468"/>
<use data-text="(" xlink:href="#font_3_1" transform="matrix(10.9091,0,0,-10.909644,182.94699,98.90614)"/>
<use data-text="k" xlink:href="#font_1_5" transform="matrix(10.9091,0,0,-10.909644,187.19,98.90614)"/>
<use data-text="," xlink:href="#font_1_1" transform="matrix(10.9091,0,0,-10.909644,193.20092,98.90614)"/>
<use data-text="0" xlink:href="#font_3_3" transform="matrix(10.9091,0,0,-10.909644,198.061,98.90614)"/>
<use data-text=")" xlink:href="#font_3_2" transform="matrix(10.9091,0,0,-10.909644,203.51555,98.90614)"/>
<use data-text="C" xlink:href="#font_4_2" transform="matrix(10.9091,0,0,-10.909644,119.228,44.937444)"/>
<use data-text="C" xlink:href="#font_4_2" transform="matrix(10.9091,0,0,-10.909644,117.831,174.38892)"/>
<use data-text="&#x2032;" xlink:href="#font_5_1" transform="matrix(7.9701,0,0,-7.970498,124.212009,170.42972)"/>
</svg>
